G75*
%MOIN*%
%OFA0B0*%
%FSLAX25Y25*%
%IPPOS*%
%LPD*%
%AMOC8*
5,1,8,0,0,1.08239X$1,22.5*
%
%ADD10OC8,0.07600*%
%ADD11R,0.07000X0.07000*%
%ADD12OC8,0.07000*%
%ADD13C,0.14100*%
%ADD14C,0.05143*%
%ADD15R,0.09000X0.09000*%
%ADD16C,0.09000*%
%ADD17C,0.05340*%
%ADD18R,0.05734X0.05734*%
%ADD19C,0.05734*%
%ADD20C,0.05200*%
D10*
X0100000Y0050000D03*
X0100000Y0060000D03*
X0120000Y0060000D03*
X0120000Y0050000D03*
X0130000Y0050000D03*
X0130000Y0060000D03*
X0140000Y0060000D03*
X0140000Y0050000D03*
X0140000Y0220000D03*
X0140000Y0230000D03*
X0130000Y0230000D03*
X0130000Y0220000D03*
X0120000Y0220000D03*
X0120000Y0230000D03*
X0110000Y0230000D03*
X0110000Y0220000D03*
X0100000Y0220000D03*
X0100000Y0230000D03*
X0090000Y0230000D03*
X0090000Y0220000D03*
X0080000Y0220000D03*
X0080000Y0230000D03*
X0070000Y0230000D03*
X0070000Y0220000D03*
X0060000Y0220000D03*
X0060000Y0230000D03*
X0050000Y0230000D03*
X0050000Y0220000D03*
X0010000Y0290000D03*
X0010000Y0300000D03*
X0010000Y0310000D03*
X0010000Y0320000D03*
X0010000Y0330000D03*
X0010000Y0340000D03*
X0010000Y0349999D03*
X0171000Y0314500D03*
X0171000Y0304500D03*
X0171000Y0294500D03*
X0205000Y0240000D03*
X0205000Y0230000D03*
D11*
X0180000Y0020000D03*
X0180000Y0010000D03*
X0130000Y0010000D03*
X0130000Y0020000D03*
X0080000Y0020000D03*
X0080000Y0010000D03*
X0030000Y0010000D03*
X0030000Y0020000D03*
D12*
X0040000Y0020000D03*
X0040000Y0010000D03*
X0050000Y0010000D03*
X0050000Y0020000D03*
X0060000Y0020000D03*
X0060000Y0010000D03*
X0070000Y0010000D03*
X0070000Y0020000D03*
X0090000Y0020000D03*
X0090000Y0010000D03*
X0100000Y0010000D03*
X0100000Y0020000D03*
X0110000Y0020000D03*
X0110000Y0010000D03*
X0120000Y0010000D03*
X0120000Y0020000D03*
X0140000Y0020000D03*
X0140000Y0010000D03*
X0150000Y0010000D03*
X0150000Y0020000D03*
X0160000Y0020000D03*
X0160000Y0010000D03*
X0170000Y0010000D03*
X0170000Y0020000D03*
X0190000Y0020000D03*
X0190000Y0010000D03*
X0200000Y0010000D03*
X0200000Y0020000D03*
X0210000Y0020000D03*
X0210000Y0010000D03*
D13*
X0015000Y0015000D03*
X0225000Y0015000D03*
X0225000Y0370000D03*
X0015000Y0370000D03*
D14*
X0034449Y0368972D02*
X0034449Y0372516D01*
X0065551Y0372516D02*
X0065551Y0368972D01*
D15*
X0030000Y0180000D03*
X0030000Y0050000D03*
X0210000Y0050000D03*
D16*
X0210000Y0060000D03*
X0210000Y0070000D03*
X0210000Y0090000D03*
X0210000Y0100000D03*
X0210000Y0110000D03*
X0210000Y0120000D03*
X0210000Y0130000D03*
X0210000Y0140000D03*
X0210000Y0150000D03*
X0210000Y0160000D03*
X0210000Y0170000D03*
X0210000Y0180000D03*
X0200000Y0180000D03*
X0200000Y0170000D03*
X0200000Y0160000D03*
X0200000Y0150000D03*
X0200000Y0140000D03*
X0200000Y0130000D03*
X0200000Y0120000D03*
X0200000Y0110000D03*
X0200000Y0100000D03*
X0200000Y0090000D03*
X0040000Y0090000D03*
X0040000Y0100000D03*
X0040000Y0110000D03*
X0040000Y0120000D03*
X0040000Y0130000D03*
X0040000Y0140000D03*
X0040000Y0150000D03*
X0040000Y0160000D03*
X0040000Y0170000D03*
X0040000Y0180000D03*
X0030000Y0170000D03*
X0030000Y0160000D03*
X0030000Y0150000D03*
X0030000Y0140000D03*
X0030000Y0130000D03*
X0030000Y0120000D03*
X0030000Y0110000D03*
X0030000Y0100000D03*
X0030000Y0090000D03*
X0030000Y0070000D03*
X0030000Y0060000D03*
D17*
X0014000Y0199972D03*
X0014000Y0209028D03*
X0183972Y0371000D03*
X0193028Y0371000D03*
X0226000Y0209028D03*
X0226000Y0199972D03*
D18*
X0185000Y0215500D03*
X0185000Y0239500D03*
D19*
X0185000Y0234500D03*
X0180000Y0234500D03*
X0180000Y0239500D03*
X0175000Y0239500D03*
X0175000Y0234500D03*
X0170000Y0234500D03*
X0170000Y0239500D03*
X0165000Y0239500D03*
X0165000Y0234500D03*
X0165000Y0215500D03*
X0165000Y0210500D03*
X0170000Y0210500D03*
X0170000Y0215500D03*
X0175000Y0215500D03*
X0175000Y0210500D03*
X0180000Y0210500D03*
X0180000Y0215500D03*
X0185000Y0210500D03*
D20*
X0164000Y0254000D03*
X0167000Y0257000D03*
X0214742Y0280466D03*
X0077000Y0354000D03*
X0063000Y0353500D03*
X0059000Y0353500D03*
X0043000Y0354000D03*
X0030000Y0326000D03*
M02*
