G75*
%MOIN*%
%OFA0B0*%
%FSLAX25Y25*%
%IPPOS*%
%LPD*%
%AMOC8*
5,1,8,0,0,1.08239X$1,22.5*
%
%ADD10OC8,0.06000*%
%ADD11R,0.05400X0.05400*%
%ADD12OC8,0.05400*%
%ADD13C,0.03543*%
%ADD14R,0.07400X0.07400*%
%ADD15C,0.07400*%
%ADD16R,0.04134X0.04134*%
%ADD17C,0.04134*%
%ADD18C,0.02800*%
%ADD19C,0.01600*%
%ADD20C,0.00800*%
%ADD21C,0.03600*%
%ADD22C,0.02500*%
%ADD23C,0.02000*%
%ADD24C,0.01200*%
D10*
X0100000Y0050000D03*
X0100000Y0060000D03*
X0120000Y0060000D03*
X0120000Y0050000D03*
X0130000Y0050000D03*
X0130000Y0060000D03*
X0140000Y0060000D03*
X0140000Y0050000D03*
X0140000Y0220000D03*
X0140000Y0230000D03*
X0130000Y0230000D03*
X0130000Y0220000D03*
X0120000Y0220000D03*
X0120000Y0230000D03*
X0110000Y0230000D03*
X0110000Y0220000D03*
X0100000Y0220000D03*
X0100000Y0230000D03*
X0090000Y0230000D03*
X0090000Y0220000D03*
X0080000Y0220000D03*
X0080000Y0230000D03*
X0070000Y0230000D03*
X0070000Y0220000D03*
X0060000Y0220000D03*
X0060000Y0230000D03*
X0050000Y0230000D03*
X0050000Y0220000D03*
X0010000Y0290000D03*
X0010000Y0300000D03*
X0010000Y0310000D03*
X0010000Y0320000D03*
X0010000Y0330000D03*
X0010000Y0340000D03*
X0010000Y0349999D03*
X0171000Y0314500D03*
X0171000Y0304500D03*
X0171000Y0294500D03*
X0205000Y0240000D03*
X0205000Y0230000D03*
D11*
X0030000Y0010000D03*
X0030000Y0020000D03*
X0080000Y0020000D03*
X0080000Y0010000D03*
X0130000Y0010000D03*
X0130000Y0020000D03*
X0180000Y0020000D03*
X0180000Y0010000D03*
D12*
X0170000Y0010000D03*
X0170000Y0020000D03*
X0160000Y0020000D03*
X0160000Y0010000D03*
X0150000Y0010000D03*
X0150000Y0020000D03*
X0140000Y0020000D03*
X0140000Y0010000D03*
X0120000Y0010000D03*
X0120000Y0020000D03*
X0110000Y0020000D03*
X0110000Y0010000D03*
X0100000Y0010000D03*
X0100000Y0020000D03*
X0090000Y0020000D03*
X0090000Y0010000D03*
X0070000Y0010000D03*
X0070000Y0020000D03*
X0060000Y0020000D03*
X0060000Y0010000D03*
X0050000Y0010000D03*
X0050000Y0020000D03*
X0040000Y0020000D03*
X0040000Y0010000D03*
X0190000Y0010000D03*
X0190000Y0020000D03*
X0200000Y0020000D03*
X0200000Y0010000D03*
X0210000Y0010000D03*
X0210000Y0020000D03*
D13*
X0065551Y0368972D02*
X0065551Y0372516D01*
X0034449Y0372516D02*
X0034449Y0368972D01*
D14*
X0030000Y0180000D03*
X0030000Y0050000D03*
X0210000Y0050000D03*
D15*
X0210000Y0060000D03*
X0210000Y0070000D03*
X0210000Y0090000D03*
X0210000Y0100000D03*
X0210000Y0110000D03*
X0210000Y0120000D03*
X0210000Y0130000D03*
X0210000Y0140000D03*
X0210000Y0150000D03*
X0210000Y0160000D03*
X0210000Y0170000D03*
X0210000Y0180000D03*
X0200000Y0180000D03*
X0200000Y0170000D03*
X0200000Y0160000D03*
X0200000Y0150000D03*
X0200000Y0140000D03*
X0200000Y0130000D03*
X0200000Y0120000D03*
X0200000Y0110000D03*
X0200000Y0100000D03*
X0200000Y0090000D03*
X0040000Y0090000D03*
X0040000Y0100000D03*
X0040000Y0110000D03*
X0040000Y0120000D03*
X0040000Y0130000D03*
X0040000Y0140000D03*
X0040000Y0150000D03*
X0040000Y0160000D03*
X0040000Y0170000D03*
X0040000Y0180000D03*
X0030000Y0170000D03*
X0030000Y0160000D03*
X0030000Y0150000D03*
X0030000Y0140000D03*
X0030000Y0130000D03*
X0030000Y0120000D03*
X0030000Y0110000D03*
X0030000Y0100000D03*
X0030000Y0090000D03*
X0030000Y0070000D03*
X0030000Y0060000D03*
D16*
X0185000Y0215500D03*
X0185000Y0239500D03*
D17*
X0185000Y0234500D03*
X0180000Y0234500D03*
X0180000Y0239500D03*
X0175000Y0239500D03*
X0175000Y0234500D03*
X0170000Y0234500D03*
X0170000Y0239500D03*
X0165000Y0239500D03*
X0165000Y0234500D03*
X0165000Y0215500D03*
X0165000Y0210500D03*
X0170000Y0210500D03*
X0170000Y0215500D03*
X0175000Y0215500D03*
X0175000Y0210500D03*
X0180000Y0210500D03*
X0180000Y0215500D03*
X0185000Y0210500D03*
D18*
X0176000Y0201000D03*
X0173000Y0188000D03*
X0173000Y0175000D03*
X0166500Y0166500D03*
X0163000Y0162500D03*
X0159000Y0159000D03*
X0163750Y0147000D03*
X0166500Y0144250D03*
X0160000Y0141750D03*
X0156000Y0139750D03*
X0158750Y0137200D03*
X0157000Y0120000D03*
X0156000Y0115000D03*
X0166000Y0108500D03*
X0169500Y0096500D03*
X0172500Y0100000D03*
X0175500Y0103000D03*
X0190250Y0104750D03*
X0193000Y0110250D03*
X0194000Y0124250D03*
X0188250Y0127000D03*
X0190250Y0133000D03*
X0179000Y0134000D03*
X0176200Y0123400D03*
X0183250Y0081500D03*
X0186750Y0079750D03*
X0190000Y0077250D03*
X0192500Y0080000D03*
X0195250Y0077000D03*
X0177000Y0053500D03*
X0163000Y0054250D03*
X0154750Y0063500D03*
X0142500Y0043000D03*
X0149000Y0034500D03*
X0158950Y0040150D03*
X0161000Y0035000D03*
X0131000Y0084000D03*
X0126000Y0084500D03*
X0134500Y0096500D03*
X0137500Y0093500D03*
X0142000Y0093000D03*
X0146500Y0092500D03*
X0146000Y0097000D03*
X0143000Y0115000D03*
X0144700Y0131400D03*
X0143750Y0146500D03*
X0138750Y0149500D03*
X0142500Y0153000D03*
X0135000Y0151050D03*
X0133250Y0147250D03*
X0127901Y0144500D03*
X0127250Y0149250D03*
X0122500Y0143000D03*
X0122950Y0138550D03*
X0122500Y0134750D03*
X0131500Y0141250D03*
X0121700Y0156900D03*
X0114500Y0154750D03*
X0110200Y0156650D03*
X0108000Y0151000D03*
X0111000Y0148500D03*
X0103000Y0144000D03*
X0097500Y0143000D03*
X0097000Y0147000D03*
X0089500Y0159000D03*
X0092000Y0163000D03*
X0083000Y0153000D03*
X0078000Y0153000D03*
X0076500Y0156500D03*
X0072250Y0158000D03*
X0068750Y0155500D03*
X0061000Y0164500D03*
X0059000Y0168500D03*
X0058000Y0156750D03*
X0050500Y0154000D03*
X0065700Y0117400D03*
X0074000Y0122000D03*
X0081950Y0117150D03*
X0086500Y0105250D03*
X0091500Y0097000D03*
X0089000Y0093500D03*
X0090000Y0089250D03*
X0086250Y0088250D03*
X0082000Y0087500D03*
X0079000Y0102000D03*
X0075500Y0105500D03*
X0065400Y0106550D03*
X0082500Y0128500D03*
X0096250Y0124000D03*
X0099500Y0121250D03*
X0098750Y0117500D03*
X0103750Y0121750D03*
X0107500Y0120000D03*
X0111000Y0122250D03*
X0107200Y0130200D03*
X0106250Y0134000D03*
X0118000Y0116000D03*
X0118000Y0111500D03*
X0114500Y0108750D03*
X0110450Y0108650D03*
X0106500Y0108500D03*
X0102750Y0108000D03*
X0106000Y0093500D03*
X0102000Y0077500D03*
X0099250Y0075000D03*
X0102500Y0072500D03*
X0099000Y0070000D03*
X0103750Y0067500D03*
X0080200Y0040900D03*
X0122500Y0115000D03*
X0122500Y0120500D03*
X0147000Y0164500D03*
X0150500Y0167500D03*
X0147000Y0170000D03*
X0150500Y0173000D03*
X0147000Y0175000D03*
X0150000Y0188000D03*
X0154000Y0191000D03*
X0161000Y0188000D03*
X0146500Y0199500D03*
X0146500Y0207500D03*
X0136000Y0195500D03*
X0133000Y0191000D03*
X0130000Y0183000D03*
X0113000Y0190000D03*
X0113000Y0194500D03*
X0094500Y0184500D03*
X0080000Y0175500D03*
X0074000Y0173000D03*
X0042000Y0201500D03*
X0037000Y0201500D03*
X0023450Y0205900D03*
X0017450Y0220900D03*
X0008200Y0237300D03*
X0021000Y0252000D03*
X0024000Y0256000D03*
X0029000Y0248500D03*
X0037000Y0239500D03*
X0045000Y0238000D03*
X0050000Y0245000D03*
X0046500Y0251500D03*
X0043000Y0254000D03*
X0037500Y0257500D03*
X0038000Y0265500D03*
X0050000Y0254500D03*
X0059000Y0248000D03*
X0071000Y0248000D03*
X0074500Y0243000D03*
X0078000Y0258000D03*
X0084000Y0257500D03*
X0092000Y0248000D03*
X0096000Y0248000D03*
X0095500Y0255000D03*
X0106000Y0252000D03*
X0111000Y0256000D03*
X0116000Y0251000D03*
X0112000Y0246000D03*
X0126500Y0267000D03*
X0126000Y0271000D03*
X0123500Y0275000D03*
X0114500Y0278000D03*
X0120500Y0289000D03*
X0125000Y0287500D03*
X0131000Y0286000D03*
X0134000Y0292000D03*
X0134500Y0296500D03*
X0125000Y0297000D03*
X0120500Y0295500D03*
X0111000Y0297000D03*
X0121000Y0310000D03*
X0127500Y0308500D03*
X0127000Y0322000D03*
X0117000Y0330000D03*
X0117000Y0334000D03*
X0117000Y0338000D03*
X0117000Y0342000D03*
X0107500Y0354500D03*
X0117500Y0359000D03*
X0100500Y0336500D03*
X0090642Y0330366D03*
X0090000Y0339000D03*
X0080000Y0330500D03*
X0076500Y0332500D03*
X0072000Y0332500D03*
X0075500Y0319000D03*
X0075500Y0312500D03*
X0069000Y0318500D03*
X0059500Y0309500D03*
X0060000Y0302000D03*
X0051500Y0292000D03*
X0052000Y0284000D03*
X0045000Y0283000D03*
X0045000Y0290000D03*
X0033000Y0300000D03*
X0031000Y0307500D03*
X0023500Y0311000D03*
X0026000Y0318500D03*
X0026000Y0322500D03*
X0035000Y0324500D03*
X0034500Y0343500D03*
X0036000Y0347000D03*
X0037500Y0350500D03*
X0040500Y0348000D03*
X0047500Y0353000D03*
X0052000Y0353000D03*
X0055000Y0350000D03*
X0057500Y0347000D03*
X0053000Y0343000D03*
X0048500Y0339000D03*
X0048000Y0343000D03*
X0029500Y0358000D03*
X0016500Y0327000D03*
X0025500Y0297000D03*
X0023500Y0291500D03*
X0022500Y0287000D03*
X0020500Y0279000D03*
X0050000Y0305000D03*
X0060000Y0269500D03*
X0073000Y0270500D03*
X0084000Y0273500D03*
X0089500Y0273500D03*
X0088000Y0281500D03*
X0088000Y0286000D03*
X0088500Y0290000D03*
X0094500Y0295000D03*
X0094000Y0304500D03*
X0091500Y0311000D03*
X0084500Y0319000D03*
X0105000Y0321500D03*
X0098500Y0359000D03*
X0079500Y0368000D03*
X0067000Y0363000D03*
X0131500Y0266000D03*
X0137000Y0266000D03*
X0142500Y0266000D03*
X0146000Y0253000D03*
X0146000Y0247000D03*
X0142000Y0243000D03*
X0131000Y0240000D03*
X0129000Y0255000D03*
X0155000Y0288000D03*
X0149500Y0293500D03*
X0145000Y0294500D03*
X0154000Y0307000D03*
X0154000Y0311000D03*
X0162500Y0317500D03*
X0165500Y0315000D03*
X0164000Y0327000D03*
X0159000Y0331000D03*
X0150000Y0328000D03*
X0145000Y0334000D03*
X0142500Y0330000D03*
X0136000Y0355000D03*
X0155500Y0371000D03*
X0169450Y0372900D03*
X0179950Y0359900D03*
X0186000Y0348000D03*
X0185400Y0338300D03*
X0186000Y0333000D03*
X0177500Y0336500D03*
X0177000Y0346500D03*
X0160000Y0351000D03*
X0178000Y0324000D03*
X0181700Y0316000D03*
X0185300Y0314200D03*
X0192500Y0314000D03*
X0201500Y0318000D03*
X0208200Y0317500D03*
X0209100Y0324300D03*
X0205000Y0325000D03*
X0202000Y0333500D03*
X0202000Y0340500D03*
X0209000Y0339500D03*
X0219700Y0329100D03*
X0224500Y0330500D03*
X0223000Y0319500D03*
X0223000Y0304000D03*
X0222200Y0292000D03*
X0217000Y0291500D03*
X0204500Y0280000D03*
X0201000Y0267000D03*
X0191500Y0287500D03*
X0191500Y0291500D03*
X0183000Y0298500D03*
X0163000Y0269000D03*
X0191000Y0233000D03*
X0201700Y0211400D03*
X0207000Y0212000D03*
X0216450Y0204900D03*
X0215450Y0220900D03*
X0222000Y0243000D03*
X0221500Y0272000D03*
X0206500Y0308500D03*
X0223000Y0348000D03*
X0207950Y0372900D03*
X0196450Y0359900D03*
X0201000Y0190000D03*
X0222000Y0189000D03*
X0230950Y0185900D03*
X0231500Y0140500D03*
X0220500Y0140500D03*
X0016450Y0186400D03*
D19*
X0020000Y0229000D02*
X0041000Y0229000D01*
X0047000Y0235000D01*
X0055000Y0235000D01*
X0060000Y0230000D01*
X0020000Y0229000D02*
X0015000Y0234000D01*
X0015000Y0298000D01*
X0030000Y0313000D01*
X0030000Y0326000D01*
X0043000Y0354000D02*
X0047000Y0358000D01*
X0073000Y0358000D01*
X0077000Y0354000D01*
X0169450Y0370050D02*
X0169450Y0372900D01*
X0169450Y0370050D02*
X0179600Y0359900D01*
X0179950Y0359900D01*
X0196450Y0359900D02*
X0207950Y0371400D01*
X0207950Y0372900D01*
D20*
X0185400Y0338300D02*
X0171600Y0324500D01*
X0153500Y0324500D01*
X0150000Y0328000D01*
X0145000Y0329000D02*
X0152000Y0322000D01*
X0175700Y0322000D01*
X0181700Y0316000D01*
X0184700Y0314200D02*
X0183000Y0312500D01*
X0179000Y0312500D01*
X0177000Y0314500D01*
X0177000Y0315000D01*
X0172000Y0320000D01*
X0151500Y0320000D01*
X0142500Y0329000D01*
X0142500Y0330000D01*
X0145000Y0329000D02*
X0145000Y0334000D01*
X0150000Y0317000D02*
X0162000Y0317000D01*
X0162500Y0317500D01*
X0165500Y0315000D02*
X0164500Y0314000D01*
X0150000Y0314000D01*
X0146000Y0310000D01*
X0146000Y0302000D01*
X0141000Y0297000D01*
X0141000Y0295000D01*
X0132000Y0286000D01*
X0131000Y0286000D01*
X0127500Y0282000D02*
X0142500Y0267000D01*
X0142500Y0266000D01*
X0145000Y0262500D02*
X0147000Y0264500D01*
X0147000Y0271000D01*
X0145000Y0273000D01*
X0145000Y0294500D01*
X0149500Y0293500D02*
X0149500Y0262500D01*
X0148000Y0261000D01*
X0087500Y0261000D01*
X0084000Y0257500D01*
X0083500Y0262500D02*
X0145000Y0262500D01*
X0146000Y0253000D02*
X0146000Y0247000D01*
X0146000Y0236000D01*
X0140000Y0230000D01*
X0130000Y0230000D02*
X0130000Y0231000D01*
X0142000Y0243000D01*
X0124000Y0243000D01*
X0116000Y0251000D01*
X0111000Y0251000D02*
X0120000Y0242000D01*
X0120000Y0230000D01*
X0121000Y0230000D01*
X0131000Y0240000D01*
X0130000Y0220000D02*
X0130000Y0219000D01*
X0143000Y0206000D01*
X0143000Y0198000D01*
X0146500Y0194500D01*
X0162500Y0194500D01*
X0175000Y0207000D01*
X0175000Y0210500D01*
X0180000Y0210500D02*
X0180000Y0198000D01*
X0170500Y0188500D01*
X0172500Y0188500D01*
X0173000Y0188000D01*
X0170500Y0188500D02*
X0163500Y0181500D01*
X0143000Y0181500D01*
X0138750Y0177250D01*
X0138750Y0149500D01*
X0135000Y0151050D02*
X0135000Y0160000D01*
X0137000Y0162000D01*
X0137000Y0178500D01*
X0142000Y0183500D01*
X0160750Y0183500D01*
X0163125Y0185875D01*
X0161000Y0188000D01*
X0163125Y0185875D02*
X0176000Y0198750D01*
X0176000Y0201000D01*
X0162500Y0194500D02*
X0153500Y0185500D01*
X0141000Y0185500D01*
X0134500Y0179000D01*
X0134500Y0163000D01*
X0131000Y0159500D01*
X0131000Y0149500D01*
X0133250Y0147250D01*
X0133000Y0144500D02*
X0127901Y0144500D01*
X0127250Y0149250D02*
X0127500Y0149500D01*
X0127500Y0169500D01*
X0130000Y0172000D01*
X0130000Y0183000D01*
X0131000Y0199000D02*
X0137000Y0199000D01*
X0148000Y0188000D01*
X0150000Y0188000D01*
X0147500Y0191000D02*
X0154000Y0191000D01*
X0147500Y0191000D02*
X0140000Y0198500D01*
X0140000Y0206000D01*
X0132000Y0214000D01*
X0126000Y0214000D01*
X0120000Y0220000D01*
X0110000Y0230000D02*
X0112000Y0232000D01*
X0112000Y0246000D01*
X0111000Y0251000D02*
X0111000Y0256000D01*
X0106000Y0252000D02*
X0100000Y0252000D01*
X0096000Y0248000D01*
X0083500Y0262500D02*
X0079000Y0258000D01*
X0078000Y0258000D01*
X0090500Y0267000D02*
X0084000Y0273500D01*
X0089500Y0273500D02*
X0092000Y0271000D01*
X0126000Y0271000D01*
X0126500Y0267000D02*
X0090500Y0267000D01*
X0095500Y0275000D02*
X0123500Y0275000D01*
X0125500Y0278000D02*
X0130000Y0273500D01*
X0130000Y0267500D01*
X0131500Y0266000D01*
X0137000Y0266000D02*
X0137000Y0269500D01*
X0126000Y0280500D01*
X0093500Y0280500D01*
X0088000Y0286000D01*
X0088500Y0290000D02*
X0096500Y0282000D01*
X0127500Y0282000D01*
X0125500Y0278000D02*
X0114500Y0278000D01*
X0121000Y0283500D02*
X0125000Y0287500D01*
X0121000Y0283500D02*
X0100500Y0283500D01*
X0089000Y0295000D01*
X0037500Y0295000D01*
X0034000Y0291500D01*
X0023500Y0291500D01*
X0010000Y0310000D02*
X0018500Y0318500D01*
X0026000Y0318500D01*
X0026000Y0322500D02*
X0012500Y0322500D01*
X0010000Y0320000D01*
X0034500Y0343500D02*
X0047500Y0343500D01*
X0048000Y0343000D01*
X0055000Y0350000D01*
X0052000Y0353000D02*
X0044500Y0345500D01*
X0037500Y0345500D01*
X0036000Y0347000D01*
X0037500Y0350500D02*
X0034449Y0353551D01*
X0034449Y0363000D01*
X0067000Y0363000D01*
X0047500Y0353000D02*
X0042500Y0348000D01*
X0040500Y0348000D01*
X0034449Y0363000D02*
X0034449Y0370744D01*
X0075500Y0319000D02*
X0075500Y0312500D01*
X0084500Y0319000D02*
X0088000Y0319000D01*
X0094500Y0312500D01*
X0123500Y0312500D01*
X0127500Y0308500D01*
X0121000Y0310000D02*
X0092500Y0310000D01*
X0091500Y0311000D01*
X0089000Y0281500D02*
X0095500Y0275000D01*
X0089000Y0281500D02*
X0088000Y0281500D01*
X0060000Y0302000D02*
X0059500Y0302500D01*
X0059500Y0309500D01*
X0051500Y0292000D02*
X0049500Y0290000D01*
X0045000Y0290000D01*
X0046000Y0284000D02*
X0045000Y0283000D01*
X0046000Y0284000D02*
X0052000Y0284000D01*
X0043000Y0254000D02*
X0026000Y0254000D01*
X0024000Y0256000D01*
X0021000Y0252000D02*
X0022000Y0251000D01*
X0046000Y0251000D01*
X0046500Y0251500D01*
X0045000Y0238000D02*
X0045000Y0237000D01*
X0047000Y0235000D01*
X0047264Y0204500D02*
X0034618Y0204500D01*
X0033500Y0203382D01*
X0033500Y0185100D01*
X0034280Y0185100D01*
X0035100Y0184280D01*
X0035100Y0175720D01*
X0034280Y0174900D01*
X0033500Y0174900D01*
X0033500Y0174500D01*
X0037537Y0174500D01*
X0038986Y0175100D01*
X0041014Y0175100D01*
X0042463Y0174500D01*
X0047264Y0174500D01*
X0049500Y0176736D01*
X0049500Y0202264D01*
X0047264Y0204500D01*
X0047345Y0204419D02*
X0034537Y0204419D01*
X0033738Y0203620D02*
X0048144Y0203620D01*
X0048942Y0202822D02*
X0033500Y0202822D01*
X0033500Y0202023D02*
X0049500Y0202023D01*
X0049500Y0201225D02*
X0033500Y0201225D01*
X0033500Y0200426D02*
X0049500Y0200426D01*
X0049500Y0199628D02*
X0033500Y0199628D01*
X0033500Y0198829D02*
X0049500Y0198829D01*
X0049500Y0198031D02*
X0033500Y0198031D01*
X0033500Y0197232D02*
X0049500Y0197232D01*
X0049500Y0196434D02*
X0033500Y0196434D01*
X0033500Y0195635D02*
X0049500Y0195635D01*
X0049500Y0194837D02*
X0033500Y0194837D01*
X0033500Y0194038D02*
X0049500Y0194038D01*
X0049500Y0193240D02*
X0033500Y0193240D01*
X0033500Y0192441D02*
X0049500Y0192441D01*
X0049500Y0191643D02*
X0033500Y0191643D01*
X0033500Y0190844D02*
X0049500Y0190844D01*
X0049500Y0190046D02*
X0033500Y0190046D01*
X0033500Y0189247D02*
X0049500Y0189247D01*
X0049500Y0188449D02*
X0033500Y0188449D01*
X0033500Y0187650D02*
X0049500Y0187650D01*
X0049500Y0186852D02*
X0033500Y0186852D01*
X0033500Y0186053D02*
X0049500Y0186053D01*
X0049500Y0185255D02*
X0033500Y0185255D01*
X0034924Y0184456D02*
X0037952Y0184456D01*
X0038119Y0184541D02*
X0037432Y0184191D01*
X0036808Y0183737D01*
X0036262Y0183192D01*
X0035809Y0182568D01*
X0035459Y0181881D01*
X0035221Y0181147D01*
X0035102Y0180400D01*
X0039600Y0180400D01*
X0039600Y0184898D01*
X0038853Y0184779D01*
X0038119Y0184541D01*
X0039600Y0184456D02*
X0040400Y0184456D01*
X0040400Y0184898D02*
X0041147Y0184779D01*
X0041881Y0184541D01*
X0042568Y0184191D01*
X0043192Y0183737D01*
X0043737Y0183192D01*
X0044191Y0182568D01*
X0044541Y0181881D01*
X0044779Y0181147D01*
X0044898Y0180400D01*
X0040400Y0180400D01*
X0040400Y0179600D01*
X0044898Y0179600D01*
X0044779Y0178853D01*
X0044541Y0178119D01*
X0044191Y0177432D01*
X0043737Y0176808D01*
X0043192Y0176262D01*
X0042568Y0175809D01*
X0041881Y0175459D01*
X0041147Y0175221D01*
X0040400Y0175102D01*
X0040400Y0179600D01*
X0039600Y0179600D01*
X0039600Y0175102D01*
X0038853Y0175221D01*
X0038119Y0175459D01*
X0037432Y0175809D01*
X0036808Y0176262D01*
X0036262Y0176808D01*
X0035809Y0177432D01*
X0035459Y0178119D01*
X0035221Y0178853D01*
X0035102Y0179600D01*
X0039600Y0179600D01*
X0039600Y0180400D01*
X0040400Y0180400D01*
X0040400Y0184898D01*
X0040400Y0183658D02*
X0039600Y0183658D01*
X0039600Y0182859D02*
X0040400Y0182859D01*
X0040400Y0182061D02*
X0039600Y0182061D01*
X0039600Y0181262D02*
X0040400Y0181262D01*
X0040400Y0180464D02*
X0039600Y0180464D01*
X0039600Y0179665D02*
X0035100Y0179665D01*
X0035100Y0178867D02*
X0035218Y0178867D01*
X0035100Y0178068D02*
X0035485Y0178068D01*
X0035100Y0177270D02*
X0035927Y0177270D01*
X0036599Y0176471D02*
X0035100Y0176471D01*
X0035052Y0175672D02*
X0037700Y0175672D01*
X0038440Y0174874D02*
X0033500Y0174874D01*
X0035100Y0180464D02*
X0035112Y0180464D01*
X0035100Y0181262D02*
X0035258Y0181262D01*
X0035100Y0182061D02*
X0035551Y0182061D01*
X0035100Y0182859D02*
X0036021Y0182859D01*
X0036728Y0183658D02*
X0035100Y0183658D01*
X0039600Y0178867D02*
X0040400Y0178867D01*
X0040400Y0179665D02*
X0049500Y0179665D01*
X0049500Y0178867D02*
X0044782Y0178867D01*
X0044515Y0178068D02*
X0049500Y0178068D01*
X0049500Y0177270D02*
X0044073Y0177270D01*
X0043401Y0176471D02*
X0049235Y0176471D01*
X0048436Y0175672D02*
X0042300Y0175672D01*
X0041560Y0174874D02*
X0047638Y0174874D01*
X0049500Y0180464D02*
X0044888Y0180464D01*
X0044742Y0181262D02*
X0049500Y0181262D01*
X0049500Y0182061D02*
X0044449Y0182061D01*
X0043979Y0182859D02*
X0049500Y0182859D01*
X0049500Y0183658D02*
X0043272Y0183658D01*
X0042048Y0184456D02*
X0049500Y0184456D01*
X0040400Y0178068D02*
X0039600Y0178068D01*
X0039600Y0177270D02*
X0040400Y0177270D01*
X0040400Y0176471D02*
X0039600Y0176471D01*
X0039600Y0175672D02*
X0040400Y0175672D01*
X0050000Y0168500D02*
X0045000Y0163500D01*
X0045000Y0084500D01*
X0035000Y0074500D01*
X0035000Y0046500D01*
X0029500Y0041000D01*
X0029500Y0020500D01*
X0030000Y0020000D01*
X0034000Y0014000D02*
X0030000Y0010000D01*
X0034000Y0014000D02*
X0034000Y0043000D01*
X0036500Y0045500D01*
X0036500Y0073000D01*
X0047000Y0083500D01*
X0047000Y0159500D01*
X0052000Y0164500D01*
X0061000Y0164500D01*
X0059000Y0168500D02*
X0050000Y0168500D01*
X0059250Y0158000D02*
X0058000Y0156750D01*
X0059250Y0158000D02*
X0072250Y0158000D01*
X0075000Y0156500D02*
X0070500Y0152000D01*
X0053000Y0152000D01*
X0049000Y0148000D01*
X0049000Y0083000D01*
X0038000Y0072000D01*
X0038000Y0044000D01*
X0035500Y0041500D01*
X0035500Y0015000D01*
X0040000Y0010500D01*
X0040000Y0010000D01*
X0045000Y0014500D02*
X0049500Y0010000D01*
X0050000Y0010000D01*
X0045000Y0014500D02*
X0045000Y0024500D01*
X0041000Y0028500D01*
X0041000Y0070000D01*
X0053000Y0082000D01*
X0053000Y0147000D01*
X0054500Y0148500D01*
X0078000Y0148500D01*
X0082500Y0153000D01*
X0083000Y0153000D01*
X0078000Y0153000D02*
X0074500Y0153000D01*
X0071500Y0150000D01*
X0053500Y0150000D01*
X0051000Y0147500D01*
X0051000Y0082500D01*
X0039500Y0071000D01*
X0039500Y0020500D01*
X0040000Y0020000D01*
X0042500Y0029500D02*
X0050000Y0022000D01*
X0050000Y0020000D01*
X0055000Y0022000D02*
X0055000Y0014500D01*
X0059500Y0010000D01*
X0060000Y0010000D01*
X0065000Y0015000D02*
X0070000Y0010000D01*
X0065000Y0015000D02*
X0065000Y0023500D01*
X0048500Y0040000D01*
X0048500Y0066000D01*
X0060500Y0078000D01*
X0060500Y0125500D01*
X0063500Y0128500D01*
X0082500Y0128500D01*
X0096250Y0124000D02*
X0106250Y0134000D01*
X0107200Y0130200D02*
X0107200Y0128950D01*
X0099500Y0121250D01*
X0098750Y0117500D02*
X0086500Y0105250D01*
X0091500Y0097000D02*
X0069500Y0097000D01*
X0066000Y0093500D01*
X0066000Y0076000D01*
X0054000Y0064000D01*
X0054000Y0043000D01*
X0069000Y0028000D01*
X0073000Y0028000D01*
X0080000Y0021000D01*
X0080000Y0020000D01*
X0075000Y0022000D02*
X0075000Y0015000D01*
X0080000Y0010000D01*
X0085000Y0014500D02*
X0089500Y0010000D01*
X0090000Y0010000D01*
X0085000Y0014500D02*
X0085000Y0022500D01*
X0077500Y0030000D01*
X0069500Y0030000D01*
X0055500Y0044000D01*
X0055500Y0062500D01*
X0068000Y0075000D01*
X0068000Y0091500D01*
X0070000Y0093500D01*
X0089000Y0093500D01*
X0092750Y0094750D02*
X0096500Y0098500D01*
X0096500Y0110500D01*
X0103750Y0117750D01*
X0103750Y0121750D01*
X0107200Y0129700D02*
X0107200Y0130200D01*
X0111000Y0122250D02*
X0111000Y0119250D01*
X0103500Y0111750D01*
X0102500Y0111750D01*
X0099500Y0108750D01*
X0099500Y0097000D01*
X0096000Y0093500D01*
X0096000Y0074500D01*
X0098000Y0072500D01*
X0102500Y0072500D01*
X0099250Y0075000D02*
X0097500Y0076750D01*
X0097500Y0092750D01*
X0102750Y0098000D01*
X0102750Y0108000D01*
X0106500Y0108500D02*
X0106500Y0099750D01*
X0099750Y0093000D01*
X0099750Y0079750D01*
X0102000Y0077500D01*
X0099000Y0070000D02*
X0097500Y0070000D01*
X0094500Y0073000D01*
X0094500Y0094000D01*
X0098000Y0097500D01*
X0098000Y0109500D01*
X0107500Y0119000D01*
X0107500Y0120000D01*
X0122500Y0134750D02*
X0156500Y0134750D01*
X0158750Y0137200D01*
X0156000Y0139750D02*
X0149750Y0139750D01*
X0146500Y0136500D01*
X0125000Y0136500D01*
X0122950Y0138550D01*
X0122500Y0143000D02*
X0123750Y0143000D01*
X0128500Y0138250D01*
X0145500Y0138250D01*
X0150000Y0142750D01*
X0159250Y0142750D01*
X0160000Y0141750D01*
X0163750Y0147000D02*
X0148250Y0147000D01*
X0144750Y0143500D01*
X0134000Y0143500D01*
X0133000Y0144500D01*
X0131500Y0141250D02*
X0145250Y0141250D01*
X0148250Y0144250D01*
X0166500Y0144250D01*
X0159000Y0159000D02*
X0180500Y0159000D01*
X0183500Y0156000D01*
X0183500Y0112500D01*
X0178500Y0107500D01*
X0178500Y0079500D01*
X0190500Y0067500D01*
X0190500Y0053000D01*
X0180000Y0042500D01*
X0180000Y0020000D01*
X0185000Y0015000D02*
X0180000Y0010000D01*
X0175000Y0015000D02*
X0170000Y0010000D01*
X0175000Y0015000D02*
X0175000Y0040500D01*
X0188500Y0054000D01*
X0188500Y0067000D01*
X0176500Y0079000D01*
X0176500Y0102000D01*
X0175500Y0103000D01*
X0172500Y0100000D02*
X0174500Y0098000D01*
X0174500Y0078500D01*
X0186500Y0066500D01*
X0186500Y0055500D01*
X0170000Y0039000D01*
X0170000Y0020000D01*
X0165000Y0015000D02*
X0160000Y0010000D01*
X0165000Y0015000D02*
X0165000Y0037500D01*
X0184500Y0057000D01*
X0184500Y0066000D01*
X0172500Y0078000D01*
X0172500Y0093500D01*
X0169500Y0096500D01*
X0166000Y0108500D02*
X0166000Y0063750D01*
X0165250Y0063000D01*
X0165250Y0056500D01*
X0163000Y0054250D01*
X0154750Y0063500D02*
X0157500Y0066250D01*
X0157500Y0086000D01*
X0159000Y0087500D01*
X0159000Y0112500D01*
X0156500Y0115000D01*
X0156000Y0115000D01*
X0180500Y0107000D02*
X0180500Y0080000D01*
X0192500Y0068000D01*
X0192500Y0051500D01*
X0185000Y0044000D01*
X0185000Y0015000D01*
X0161000Y0021000D02*
X0160000Y0020000D01*
X0161000Y0021000D02*
X0161000Y0035000D01*
X0160500Y0038000D02*
X0148000Y0025500D01*
X0136000Y0025500D01*
X0130500Y0020000D01*
X0130000Y0020000D01*
X0149000Y0034500D02*
X0149000Y0036500D01*
X0142500Y0043000D01*
X0135500Y0054250D02*
X0140000Y0058750D01*
X0140000Y0060000D01*
X0135500Y0054250D02*
X0094750Y0054250D01*
X0087000Y0062000D01*
X0087000Y0082500D01*
X0082000Y0087500D01*
X0086250Y0088250D02*
X0088750Y0085750D01*
X0088750Y0063750D01*
X0096750Y0055750D01*
X0124250Y0055750D01*
X0128500Y0060000D01*
X0130000Y0060000D01*
X0120000Y0060000D02*
X0119750Y0060000D01*
X0114750Y0065000D01*
X0094250Y0065000D01*
X0090750Y0068500D01*
X0090750Y0088500D01*
X0090000Y0089250D01*
X0092750Y0094750D02*
X0092750Y0071750D01*
X0097000Y0067500D01*
X0103750Y0067500D01*
X0079000Y0102000D02*
X0068500Y0102000D01*
X0064000Y0097500D01*
X0064000Y0076500D01*
X0052000Y0064500D01*
X0052000Y0042500D01*
X0068500Y0026000D01*
X0071000Y0026000D01*
X0075000Y0022000D01*
X0070000Y0021500D02*
X0070000Y0020000D01*
X0070000Y0021500D02*
X0050500Y0041000D01*
X0050500Y0065500D01*
X0062500Y0077500D01*
X0062500Y0098500D01*
X0069500Y0105500D01*
X0075500Y0105500D01*
X0056500Y0080000D02*
X0044500Y0068000D01*
X0044500Y0032500D01*
X0055000Y0022000D01*
X0060000Y0020500D02*
X0060000Y0020000D01*
X0060000Y0020500D02*
X0046500Y0034000D01*
X0046500Y0067000D01*
X0058500Y0079000D01*
X0058500Y0137000D01*
X0061500Y0140000D01*
X0100000Y0140000D01*
X0103000Y0143000D01*
X0103000Y0144000D01*
X0100000Y0148500D02*
X0089500Y0159000D01*
X0092000Y0163000D02*
X0104000Y0151000D01*
X0108000Y0151000D01*
X0111000Y0148500D02*
X0100000Y0148500D01*
X0097000Y0147000D02*
X0057500Y0147000D01*
X0054500Y0144000D01*
X0054500Y0081000D01*
X0042500Y0069000D01*
X0042500Y0029500D01*
X0056500Y0080000D02*
X0056500Y0141500D01*
X0058000Y0143000D01*
X0097500Y0143000D01*
X0076500Y0156500D02*
X0075000Y0156500D01*
X0068750Y0155500D02*
X0067250Y0154000D01*
X0050500Y0154000D01*
X0110000Y0220000D02*
X0131000Y0199000D01*
X0146500Y0199500D02*
X0146500Y0207500D01*
X0166500Y0166500D02*
X0180500Y0166500D01*
X0192000Y0155000D01*
X0205000Y0155000D01*
X0210000Y0160000D01*
X0220500Y0140500D02*
X0231500Y0140500D01*
X0210000Y0100000D02*
X0205000Y0095000D01*
X0197203Y0095000D01*
X0195250Y0093047D01*
X0195250Y0077000D01*
X0192500Y0080000D02*
X0192500Y0102500D01*
X0200000Y0110000D01*
X0194000Y0111250D02*
X0194000Y0124250D01*
X0189000Y0126250D02*
X0188250Y0127000D01*
X0189000Y0126250D02*
X0189000Y0112500D01*
X0185250Y0108750D01*
X0185250Y0083250D01*
X0183500Y0081500D01*
X0183250Y0081500D01*
X0186750Y0079750D02*
X0187750Y0080750D01*
X0187750Y0108750D01*
X0191000Y0112000D01*
X0191000Y0132250D01*
X0190250Y0133000D01*
X0185500Y0112000D02*
X0180500Y0107000D01*
X0185500Y0112000D02*
X0185500Y0158000D01*
X0181000Y0162500D01*
X0163000Y0162500D01*
X0194000Y0111250D02*
X0193000Y0110250D01*
X0190250Y0104750D02*
X0190000Y0104000D01*
X0190000Y0077250D01*
X0177000Y0053500D02*
X0177000Y0052500D01*
X0162500Y0038000D01*
X0160500Y0038000D01*
X0202000Y0189000D02*
X0222000Y0189000D01*
X0202000Y0189000D02*
X0201000Y0190000D01*
X0222200Y0292000D02*
X0219700Y0294500D01*
X0187000Y0294500D01*
X0183000Y0298500D01*
X0184700Y0314200D02*
X0185300Y0314200D01*
X0150000Y0317000D02*
X0143000Y0310000D01*
X0143000Y0303000D01*
X0138000Y0298000D01*
X0138000Y0295000D01*
X0135000Y0292000D01*
X0134000Y0292000D01*
D21*
X0164000Y0254000D03*
X0167000Y0257000D03*
X0214742Y0280466D03*
X0077000Y0354000D03*
X0063000Y0353500D03*
X0059000Y0353500D03*
X0043000Y0354000D03*
X0030000Y0326000D03*
D22*
X0208200Y0317500D02*
X0221000Y0317500D01*
X0223000Y0319500D01*
D23*
X0219700Y0329100D02*
X0211700Y0329100D01*
X0209100Y0326500D01*
X0209100Y0324300D01*
D24*
X0114500Y0154750D02*
X0114500Y0108750D01*
M02*
