G75*
%MOIN*%
%OFA0B0*%
%FSLAX25Y25*%
%IPPOS*%
%LPD*%
%AMOC8*
5,1,8,0,0,1.08239X$1,22.5*
%
%ADD10R,0.04331X0.03937*%
%ADD11R,0.07677X0.05906*%
%ADD12R,0.03937X0.04331*%
%ADD13R,0.03150X0.02756*%
%ADD14R,0.05512X0.03937*%
%ADD15R,0.04724X0.06299*%
%ADD16R,0.02756X0.03150*%
%ADD17R,0.09843X0.09843*%
%ADD18C,0.01378*%
%ADD19C,0.00689*%
%ADD20R,0.05906X0.06890*%
%ADD21R,0.01024X0.02677*%
%ADD22R,0.02165X0.04724*%
%ADD23R,0.05906X0.07677*%
%ADD24R,0.00984X0.05709*%
%ADD25R,0.05709X0.00984*%
%ADD26R,0.01969X0.02756*%
%ADD27R,0.04134X0.04252*%
%ADD28R,0.02756X0.01969*%
%ADD29R,0.04300X0.05500*%
%ADD30R,0.07087X0.04331*%
%ADD31R,0.06600X0.01100*%
%ADD32R,0.01100X0.06600*%
%ADD33R,0.05500X0.04300*%
%ADD34R,0.03150X0.03150*%
%ADD35R,0.05512X0.04724*%
%ADD36R,0.04600X0.01400*%
%ADD37R,0.01200X0.02200*%
%ADD38R,0.01200X0.02000*%
%ADD39C,0.00600*%
%ADD40R,0.02165X0.01575*%
%ADD41R,0.01772X0.05512*%
%ADD42R,0.04724X0.07480*%
%ADD43R,0.05709X0.08268*%
%ADD44R,0.05500X0.05500*%
%ADD45R,0.04000X0.06000*%
%ADD46R,0.06000X0.04000*%
D10*
X0024554Y0282100D03*
X0031246Y0282100D03*
X0105165Y0335643D03*
X0111858Y0335643D03*
X0210716Y0334525D03*
X0217409Y0334525D03*
X0218158Y0304450D03*
X0211465Y0304450D03*
D11*
X0066337Y0112250D03*
X0077163Y0112250D03*
X0160087Y0345875D03*
X0170914Y0345875D03*
D12*
X0116250Y0295596D03*
X0116250Y0288904D03*
X0088612Y0343297D03*
X0088612Y0349990D03*
X0054400Y0254646D03*
X0054400Y0247954D03*
D13*
X0016441Y0252366D03*
X0016441Y0256654D03*
X0011717Y0256654D03*
X0011717Y0252366D03*
X0083638Y0175500D03*
X0088362Y0175500D03*
X0074612Y0117750D03*
X0069888Y0117750D03*
X0095388Y0039000D03*
X0100112Y0039000D03*
X0116638Y0039000D03*
X0121362Y0039000D03*
X0126638Y0039000D03*
X0131362Y0039000D03*
X0136638Y0039000D03*
X0141362Y0039000D03*
X0167138Y0123000D03*
X0171862Y0123000D03*
X0182138Y0288000D03*
X0182138Y0292000D03*
X0186862Y0292000D03*
X0186862Y0288000D03*
X0185137Y0310300D03*
X0189862Y0310300D03*
X0190362Y0317799D03*
X0189862Y0322500D03*
X0189937Y0327351D03*
X0185213Y0327351D03*
X0185137Y0322500D03*
X0185637Y0317799D03*
X0185213Y0342250D03*
X0189937Y0342250D03*
X0212389Y0343850D03*
X0212413Y0339650D03*
X0217137Y0339650D03*
X0217113Y0343850D03*
X0165363Y0340500D03*
X0160638Y0340500D03*
X0150862Y0315000D03*
X0150362Y0310500D03*
X0150362Y0306500D03*
X0145638Y0306500D03*
X0145638Y0310500D03*
X0146138Y0315000D03*
D14*
X0196144Y0317366D03*
X0196144Y0309885D03*
X0204806Y0313626D03*
X0213943Y0321235D03*
X0213943Y0328715D03*
X0205430Y0329300D03*
X0196769Y0325560D03*
X0196769Y0333041D03*
X0196820Y0341185D03*
X0196820Y0348666D03*
X0205481Y0344926D03*
X0222605Y0324975D03*
D15*
X0223480Y0311975D03*
X0211669Y0311975D03*
D16*
X0197000Y0302862D03*
X0197000Y0298138D03*
X0192124Y0298013D03*
X0192124Y0302737D03*
X0187574Y0302674D03*
X0187574Y0297950D03*
X0178126Y0303637D03*
X0178126Y0308362D03*
X0178012Y0315537D03*
X0178012Y0320262D03*
X0178000Y0328137D03*
X0178000Y0332861D03*
X0162062Y0312800D03*
X0162062Y0308075D03*
X0158137Y0310600D03*
X0158137Y0315324D03*
X0198500Y0291862D03*
X0198500Y0287138D03*
X0219500Y0280862D03*
X0219500Y0276138D03*
X0206500Y0220362D03*
X0206500Y0215638D03*
X0201500Y0215638D03*
X0201500Y0220362D03*
X0175000Y0133862D03*
X0175000Y0129138D03*
X0131100Y0092462D03*
X0131100Y0087738D03*
X0126000Y0088138D03*
X0126000Y0092862D03*
X0106000Y0089862D03*
X0106000Y0085138D03*
X0094500Y0175538D03*
X0094500Y0180262D03*
X0109200Y0183638D03*
X0109200Y0188362D03*
X0116600Y0188262D03*
X0116600Y0183538D03*
X0039100Y0243338D03*
X0034600Y0243338D03*
X0034600Y0248062D03*
X0039100Y0248062D03*
X0033400Y0255688D03*
X0028900Y0255688D03*
X0028900Y0260412D03*
X0033400Y0260412D03*
X0019200Y0318838D03*
X0019200Y0323562D03*
X0019300Y0330338D03*
X0019300Y0335062D03*
X0070191Y0358103D03*
X0070191Y0362827D03*
D17*
X0161500Y0329000D03*
D18*
X0160220Y0335594D02*
X0160220Y0336972D01*
X0157661Y0336972D02*
X0157661Y0335594D01*
X0154906Y0332839D02*
X0153528Y0332839D01*
X0153528Y0330280D02*
X0154906Y0330280D01*
X0154906Y0327720D02*
X0153528Y0327720D01*
X0153528Y0325161D02*
X0154906Y0325161D01*
X0157661Y0322406D02*
X0157661Y0321028D01*
X0160220Y0321028D02*
X0160220Y0322406D01*
X0162780Y0322406D02*
X0162780Y0321028D01*
X0165339Y0321028D02*
X0165339Y0322406D01*
X0168094Y0325161D02*
X0169472Y0325161D01*
X0169472Y0327720D02*
X0168094Y0327720D01*
X0168094Y0330280D02*
X0169472Y0330280D01*
X0169472Y0332839D02*
X0168094Y0332839D01*
X0165339Y0335594D02*
X0165339Y0336972D01*
X0162780Y0336972D02*
X0162780Y0335594D01*
D19*
X0106190Y0341760D02*
X0106190Y0342450D01*
X0108848Y0342450D01*
X0108848Y0341760D01*
X0106190Y0341760D01*
X0106190Y0342448D02*
X0108848Y0342448D01*
X0106190Y0344319D02*
X0106190Y0345009D01*
X0108848Y0345009D01*
X0108848Y0344319D01*
X0106190Y0344319D01*
X0106190Y0345007D02*
X0108848Y0345007D01*
X0106190Y0346878D02*
X0106190Y0347568D01*
X0108848Y0347568D01*
X0108848Y0346878D01*
X0106190Y0346878D01*
X0106190Y0347566D02*
X0108848Y0347566D01*
X0106190Y0349437D02*
X0106190Y0350127D01*
X0108848Y0350127D01*
X0108848Y0349437D01*
X0106190Y0349437D01*
X0106190Y0350125D02*
X0108848Y0350125D01*
X0094576Y0350127D02*
X0094576Y0349437D01*
X0094576Y0350127D02*
X0097234Y0350127D01*
X0097234Y0349437D01*
X0094576Y0349437D01*
X0094576Y0350125D02*
X0097234Y0350125D01*
X0094576Y0347568D02*
X0094576Y0346878D01*
X0094576Y0347568D02*
X0097234Y0347568D01*
X0097234Y0346878D01*
X0094576Y0346878D01*
X0094576Y0347566D02*
X0097234Y0347566D01*
X0094576Y0345009D02*
X0094576Y0344319D01*
X0094576Y0345009D02*
X0097234Y0345009D01*
X0097234Y0344319D01*
X0094576Y0344319D01*
X0094576Y0345007D02*
X0097234Y0345007D01*
X0094576Y0342450D02*
X0094576Y0341760D01*
X0094576Y0342450D02*
X0097234Y0342450D01*
X0097234Y0341760D01*
X0094576Y0341760D01*
X0094576Y0342448D02*
X0097234Y0342448D01*
D20*
X0101712Y0345943D03*
X0109063Y0176000D03*
X0116937Y0176000D03*
D21*
X0103011Y0340825D03*
X0100413Y0340825D03*
X0100413Y0351061D03*
X0103011Y0351061D03*
D22*
X0211960Y0297618D03*
X0215700Y0297618D03*
X0219440Y0297618D03*
X0219440Y0287382D03*
X0211960Y0287382D03*
D23*
X0204500Y0287087D03*
X0204500Y0297913D03*
X0023900Y0343387D03*
X0023900Y0354213D03*
D24*
X0045200Y0324827D03*
X0046775Y0324827D03*
X0048350Y0324827D03*
X0049924Y0324827D03*
X0051499Y0324827D03*
X0053074Y0324827D03*
X0054649Y0324827D03*
X0056224Y0324827D03*
X0057798Y0324827D03*
X0059373Y0324827D03*
X0060948Y0324827D03*
X0062523Y0324827D03*
X0064098Y0324827D03*
X0065672Y0324827D03*
X0067247Y0324827D03*
X0068822Y0324827D03*
X0070397Y0324827D03*
X0071972Y0324827D03*
X0073546Y0324827D03*
X0075121Y0324827D03*
X0076696Y0324827D03*
X0078271Y0324827D03*
X0079846Y0324827D03*
X0081420Y0324827D03*
X0082995Y0324827D03*
X0084570Y0324827D03*
X0086145Y0324827D03*
X0087720Y0324827D03*
X0089294Y0324827D03*
X0090869Y0324827D03*
X0092444Y0324827D03*
X0094019Y0324827D03*
X0094019Y0264000D03*
X0092444Y0264000D03*
X0090869Y0264000D03*
X0089294Y0264000D03*
X0087720Y0264000D03*
X0086145Y0264000D03*
X0084570Y0264000D03*
X0082995Y0264000D03*
X0081420Y0264000D03*
X0079846Y0264000D03*
X0078271Y0264000D03*
X0076696Y0264000D03*
X0075121Y0264000D03*
X0073546Y0264000D03*
X0071972Y0264000D03*
X0070397Y0264000D03*
X0068822Y0264000D03*
X0067247Y0264000D03*
X0065672Y0264000D03*
X0064098Y0264000D03*
X0062523Y0264000D03*
X0060948Y0264000D03*
X0059373Y0264000D03*
X0057798Y0264000D03*
X0056224Y0264000D03*
X0054649Y0264000D03*
X0053074Y0264000D03*
X0051499Y0264000D03*
X0049924Y0264000D03*
X0048350Y0264000D03*
X0046775Y0264000D03*
X0045200Y0264000D03*
D25*
X0039196Y0270004D03*
X0039196Y0271579D03*
X0039196Y0273154D03*
X0039196Y0274728D03*
X0039196Y0276303D03*
X0039196Y0277878D03*
X0039196Y0279453D03*
X0039196Y0281028D03*
X0039196Y0282602D03*
X0039196Y0284177D03*
X0039196Y0285752D03*
X0039196Y0287327D03*
X0039196Y0288902D03*
X0039196Y0290476D03*
X0039196Y0292051D03*
X0039196Y0293626D03*
X0039196Y0295201D03*
X0039196Y0296776D03*
X0039196Y0298350D03*
X0039196Y0299925D03*
X0039196Y0301500D03*
X0039196Y0303075D03*
X0039196Y0304650D03*
X0039196Y0306224D03*
X0039196Y0307799D03*
X0039196Y0309374D03*
X0039196Y0310949D03*
X0039196Y0312524D03*
X0039196Y0314098D03*
X0039196Y0315673D03*
X0039196Y0317248D03*
X0039196Y0318823D03*
X0100023Y0318823D03*
X0100023Y0317248D03*
X0100023Y0315673D03*
X0100023Y0314098D03*
X0100023Y0312524D03*
X0100023Y0310949D03*
X0100023Y0309374D03*
X0100023Y0307799D03*
X0100023Y0306224D03*
X0100023Y0304650D03*
X0100023Y0303075D03*
X0100023Y0301500D03*
X0100023Y0299925D03*
X0100023Y0298350D03*
X0100023Y0296776D03*
X0100023Y0295201D03*
X0100023Y0293626D03*
X0100023Y0292051D03*
X0100023Y0290476D03*
X0100023Y0288902D03*
X0100023Y0287327D03*
X0100023Y0285752D03*
X0100023Y0284177D03*
X0100023Y0282602D03*
X0100023Y0281028D03*
X0100023Y0279453D03*
X0100023Y0277878D03*
X0100023Y0276303D03*
X0100023Y0274728D03*
X0100023Y0273154D03*
X0100023Y0271579D03*
X0100023Y0270004D03*
D26*
X0087380Y0330134D03*
X0083837Y0330134D03*
X0057072Y0331300D03*
X0053528Y0331300D03*
X0031772Y0331000D03*
X0028228Y0331000D03*
X0026978Y0311000D03*
X0030522Y0311000D03*
X0029278Y0296600D03*
X0032822Y0296600D03*
X0030272Y0287300D03*
X0026728Y0287300D03*
D27*
X0024555Y0276300D03*
X0031445Y0276300D03*
D28*
X0059100Y0254972D03*
X0059100Y0251428D03*
X0065200Y0251628D03*
X0065200Y0255172D03*
X0069200Y0255172D03*
X0069200Y0251628D03*
X0073200Y0251628D03*
X0073200Y0255172D03*
X0092000Y0255272D03*
X0092000Y0251728D03*
X0111500Y0289478D03*
X0111500Y0293022D03*
X0111000Y0300728D03*
X0107500Y0300728D03*
X0107500Y0304272D03*
X0111000Y0304272D03*
X0114500Y0304272D03*
X0118000Y0304272D03*
X0118000Y0300728D03*
X0114500Y0300728D03*
X0121500Y0300728D03*
X0125000Y0300728D03*
X0128500Y0300728D03*
X0132000Y0300728D03*
X0135500Y0300728D03*
X0135500Y0304272D03*
X0132000Y0304272D03*
X0128500Y0304272D03*
X0125000Y0304272D03*
X0121500Y0304272D03*
X0071700Y0337028D03*
X0071700Y0340572D03*
X0053300Y0340472D03*
X0053300Y0336928D03*
X0044000Y0337228D03*
X0040500Y0337228D03*
X0037000Y0337228D03*
X0037000Y0340772D03*
X0040500Y0340772D03*
X0044000Y0340772D03*
X0035000Y0330772D03*
X0035000Y0327228D03*
X0149047Y0040500D03*
X0154953Y0040500D03*
D29*
X0167800Y0117750D03*
X0175200Y0117750D03*
D30*
X0167500Y0128800D03*
X0167500Y0136200D03*
D31*
X0150000Y0136400D03*
X0150000Y0134500D03*
X0150000Y0132500D03*
X0150000Y0130500D03*
X0150000Y0128600D03*
X0150000Y0126600D03*
X0150000Y0124600D03*
X0150000Y0122700D03*
X0150000Y0120700D03*
X0150000Y0118700D03*
X0150000Y0116800D03*
X0150000Y0114800D03*
X0150000Y0112800D03*
X0150000Y0110800D03*
X0150000Y0108900D03*
X0150000Y0138400D03*
X0150000Y0140400D03*
X0150000Y0142300D03*
X0150000Y0144300D03*
X0150000Y0146300D03*
X0150000Y0148200D03*
X0150000Y0150200D03*
X0150000Y0152200D03*
X0150000Y0154200D03*
X0150000Y0156100D03*
X0090000Y0156100D03*
X0090000Y0154200D03*
X0090000Y0152200D03*
X0090000Y0150200D03*
X0090000Y0148200D03*
X0090000Y0146300D03*
X0090000Y0144300D03*
X0090000Y0142300D03*
X0090000Y0140400D03*
X0090000Y0138400D03*
X0090000Y0136400D03*
X0090000Y0134500D03*
X0090000Y0132500D03*
X0090000Y0130500D03*
X0090000Y0128600D03*
X0090000Y0126600D03*
X0090000Y0124600D03*
X0090000Y0122700D03*
X0090000Y0120700D03*
X0090000Y0118700D03*
X0090000Y0116800D03*
X0090000Y0114800D03*
X0090000Y0112800D03*
X0090000Y0110800D03*
X0090000Y0108900D03*
D32*
X0096400Y0102500D03*
X0098300Y0102500D03*
X0100300Y0102500D03*
X0102300Y0102500D03*
X0104300Y0102500D03*
X0106200Y0102500D03*
X0108200Y0102500D03*
X0110200Y0102500D03*
X0112100Y0102500D03*
X0114100Y0102500D03*
X0116100Y0102500D03*
X0118000Y0102500D03*
X0120000Y0102500D03*
X0122000Y0102500D03*
X0123900Y0102500D03*
X0125900Y0102500D03*
X0127900Y0102500D03*
X0129800Y0102500D03*
X0131800Y0102500D03*
X0133800Y0102500D03*
X0135700Y0102500D03*
X0137700Y0102500D03*
X0139700Y0102500D03*
X0141700Y0102500D03*
X0143600Y0102500D03*
X0143600Y0162500D03*
X0141700Y0162500D03*
X0139700Y0162500D03*
X0137700Y0162500D03*
X0135700Y0162500D03*
X0133800Y0162500D03*
X0131800Y0162500D03*
X0129800Y0162500D03*
X0127900Y0162500D03*
X0125900Y0162500D03*
X0123900Y0162500D03*
X0122000Y0162500D03*
X0120000Y0162500D03*
X0118000Y0162500D03*
X0116100Y0162500D03*
X0114100Y0162500D03*
X0112100Y0162500D03*
X0110200Y0162500D03*
X0108200Y0162500D03*
X0106200Y0162500D03*
X0104300Y0162500D03*
X0102300Y0162500D03*
X0100300Y0162500D03*
X0098300Y0162500D03*
X0096400Y0162500D03*
D33*
X0100000Y0175300D03*
X0100000Y0182700D03*
D34*
X0015693Y0233469D03*
X0009787Y0233469D03*
X0009787Y0240969D03*
X0015693Y0240969D03*
X0084547Y0039000D03*
X0090453Y0039000D03*
D35*
X0111669Y0085850D03*
X0111669Y0092150D03*
X0120331Y0092150D03*
X0120331Y0085850D03*
X0066861Y0335700D03*
X0066861Y0341999D03*
X0058200Y0341999D03*
X0058200Y0335700D03*
D36*
X0078400Y0250600D03*
X0078400Y0245400D03*
X0086600Y0245400D03*
X0086600Y0248000D03*
X0086600Y0250600D03*
D37*
X0047547Y0346584D03*
D38*
X0049547Y0346484D03*
X0051547Y0346484D03*
X0051547Y0349484D03*
X0049547Y0349484D03*
X0047547Y0349484D03*
D39*
X0047047Y0350384D02*
X0047047Y0348484D01*
X0048047Y0348484D01*
X0048047Y0350384D01*
X0047047Y0350384D01*
X0049047Y0350384D02*
X0049047Y0348484D01*
X0050047Y0348484D01*
X0050047Y0350384D01*
X0049047Y0350384D01*
X0051047Y0350384D02*
X0051047Y0348484D01*
X0052047Y0348484D01*
X0052047Y0350384D01*
X0051047Y0350384D01*
X0051047Y0347484D02*
X0051047Y0345584D01*
X0052047Y0345584D01*
X0052047Y0347484D01*
X0051047Y0347484D01*
X0050047Y0347484D02*
X0049047Y0347484D01*
X0049047Y0345584D01*
X0050047Y0345584D01*
X0050047Y0347484D01*
X0048047Y0347584D02*
X0047047Y0347584D01*
X0047047Y0345584D01*
X0048047Y0345584D01*
X0048047Y0347584D01*
D40*
X0149343Y0043354D03*
X0149343Y0037646D03*
X0154657Y0037646D03*
X0154657Y0043354D03*
D41*
X0055118Y0359917D03*
X0052559Y0359917D03*
X0050000Y0359917D03*
X0047441Y0359917D03*
X0044882Y0359917D03*
D42*
X0046654Y0370350D03*
X0053346Y0370350D03*
D43*
X0059646Y0361295D03*
X0040354Y0361295D03*
D44*
X0019250Y0213000D03*
X0019250Y0196000D03*
X0180000Y0365750D03*
X0197000Y0365750D03*
X0220750Y0213000D03*
X0220750Y0196000D03*
D45*
X0228000Y0191000D03*
X0228000Y0218000D03*
X0012000Y0218000D03*
X0012000Y0191000D03*
D46*
X0175000Y0373000D03*
X0202000Y0373000D03*
M02*
